# xmcd
#
# Track frame offsets: 
#        150
#        12980
#        25605
#        35231
#        45064
#        55492
#        66808
#        77367
#        87511
#        100802
#        111174
#        121647
#        133762
#        147010
#        160458
#        171880
#        183789
#        194806
#        208252
#        221347
#        234497
#        245226
#        258008
#        281552
#        293264
#        309995
#        323752
#        336907
#
# Disc length: 4640 seconds
#
# Revision: 0
# Processed by: cddbd v1.5.2PL0 Copyright (c) Steve Scherf et al.
# Submitted via: ExactAudioCopy v1.0b1
#
DISCID=8b121e1c
DTITLE=Various Artist - Soul Time
DYEAR=2010
DGENRE=Soul
TTITLE0=Bob and Earl - Harlem Shufle
TTITLE1=Alvin Cash and The Registers - Twine Time
TTITLE2=Willie Mitchell - That Driving Beat
TTITLE3=Barbara Lynn - You Left the Water Running
TTITLE4=Jackie Wilson - Whispers (Getting Louder)
TTITLE5=The Capitols - Cool Jerk
TTITLE6=Jackie Lee - The Duck
TTITLE7=Erma Franklin - Gotta Find Me a Lover
TTITLE8=Gene Chandler - Nothing Can Stop Me
TTITLE9=Lee Charles - Wrong Number
TTITLE10=Billy Watkins - The Ice Man
TTITLE11=The Artistics - I'm Gonna Miss You
TTITLE12=Barbara Acklin - Love Makes a Woman
TTITLE13=Young Holt Unlimited - Soulful Strut
TTITLE14=The Lost Generation - You're So Young, But You're So True
TTITLE15=Otis Leavall - Love Uprising
TTITLE16=Barbara Acklin and Gene Chandler - From the Teacher to the Prea
TTITLE16=cher
TTITLE17=Major Lance - Sweeter as the Days Go By
TTITLE18=Jackie Wilson - I Get the Sweetest Feeling
TTITLE19=Tyrone Davis - Can I Change My Mind
TTITLE20=Lavern Baker - I'm the One to Do it
TTITLE21=Walter Jackson - Let Me Come Back
TTITLE22=Average White Band - Put it Where You Want it
TTITLE23=Syl Johnson - Back For a Taste of Your Love
TTITLE24=Al Green - Take Me to the River
TTITLE25=Quiet Elegance - Mama Said
TTITLE26=Tyrone Davis - If I Could Turn Back the Hands of Time
TTITLE27=Deon Jackson - Love Makes the World Go Round
EXTD=
EXTT0=
EXTT1=
EXTT2=
EXTT3=
EXTT4=
EXTT5=
EXTT6=
EXTT7=
EXTT8=
EXTT9=
EXTT10=
EXTT11=
EXTT12=
EXTT13=
EXTT14=
EXTT15=
EXTT16=
EXTT17=
EXTT18=
EXTT19=
EXTT20=
EXTT21=
EXTT22=
EXTT23=
EXTT24=
EXTT25=
EXTT26=
EXTT27=
PLAYORDER=
